# xmcd
#
# Track frame offsets:
#	150
#	16355
#	28784
#	42581
#	51977
#	65937
#	81144
#	93718
#	107898
#	122822
#	139065
#	150963
#
# Disc length: 2155 seconds
#
# Revision: 1
# Processed by: cddbd v1.5.2PL0 Copyright (c) Steve Scherf et al.
# Submitted via: audiograbber 1.82.02
#
DISCID=a908690c
DTITLE=Varius -  Νησιώτικα παραδοσιακά - Νο 2
DYEAR=1900
DGENRE=Νησιώτικα
TTITLE0=Θάλασσα λεβεντοπνίχτρα - Σούλα Πασαλάρη
TTITLE1=Ξεκινά μια ψαροπούλα - Ξανθίπη Καραθανάση
TTITLE2=Παρακαλώσε θάλασσα - ’ννα Καραμπεσίνη and Έφη Σαρρή
TTITLE3=Γαστουριώτικος χορός - Ορχηστρικό
TTITLE4=Βάρκα θέλω ν' αρματώσω - ’ννα Καραμπεσίνη and Έφη Σαρρή
TTITLE5=Τζιβαέρι μου - Αιμιλία Χατζηδάκη
TTITLE6=Μπάρμπα Θοδωρή - Ειρήνη Καβακοπούλου
TTITLE7=Μάνα χαρά - Μάνα χαρά - Τοπικό Συγκρότημα Ρόδου
TTITLE8=Σάμος μου όμορφο νησί - Θάλεια Σπανού
TTITLE9=Ρόδος μου όμορφο νησί -  - ’ννα Καραμπεσίνη and Έφη Σαρρή
TTITLE10=Βοσκαρού - Νικολέττα Ροδίτου
TTITLE11=Σούστα Ρόδου - Ορχηστρικό
EXTD=Συλλογή 10 CD
EXTT0=
EXTT1=
EXTT2=
EXTT3=
EXTT4=
EXTT5=
EXTT6=
EXTT7=
EXTT8=
EXTT9=
EXTT10=
EXTT11=
PLAYORDER=
